<mxfile host="app.diagrams.net" agent="Mozilla/5.0 (Windows NT 10.0; Win64; x64) AppleWebKit/537.36 (KHTML, like Gecko) Chrome/128.0.0.0 Safari/537.36" version="24.7.11">
  <diagram name="Página-1" id="S8C3yDAyfk4lb4P4oVKa">
    <mxGraphModel dx="1340" dy="796" grid="1" gridSize="10" guides="1" tooltips="1" connect="1" arrows="1" fold="1" page="1" pageScale="1" pageWidth="827" pageHeight="1169" math="0" shadow="0">
      <root>
        <mxCell id="0" />
        <mxCell id="1" parent="0" />
        <mxCell id="WNNXmoZ7wmmdZ6i9FZGc-1" value="Aluno" style="rounded=0;whiteSpace=wrap;html=1;" vertex="1" parent="1">
          <mxGeometry x="200" y="330" width="110" height="60" as="geometry" />
        </mxCell>
        <mxCell id="WNNXmoZ7wmmdZ6i9FZGc-3" value="Curso" style="rounded=0;whiteSpace=wrap;html=1;" vertex="1" parent="1">
          <mxGeometry x="190" y="60" width="120" height="60" as="geometry" />
        </mxCell>
        <mxCell id="WNNXmoZ7wmmdZ6i9FZGc-5" value="Professor" style="rounded=0;whiteSpace=wrap;html=1;shadow=1;" vertex="1" parent="1">
          <mxGeometry x="540" y="310" width="120" height="60" as="geometry" />
        </mxCell>
        <mxCell id="WNNXmoZ7wmmdZ6i9FZGc-7" value="&lt;blockquote style=&quot;margin: 0 0 0 40px; border: none; padding: 0px;&quot;&gt;&lt;blockquote style=&quot;margin: 0 0 0 40px; border: none; padding: 0px;&quot;&gt;NOME&lt;/blockquote&gt;&lt;/blockquote&gt;" style="ellipse;whiteSpace=wrap;html=1;perimeterSpacing=30;align=center;" vertex="1" parent="1">
          <mxGeometry x="120" y="460" width="20" height="10" as="geometry" />
        </mxCell>
        <mxCell id="WNNXmoZ7wmmdZ6i9FZGc-8" value="&lt;blockquote style=&quot;margin: 0 0 0 40px; border: none; padding: 0px;&quot;&gt;&lt;blockquote style=&quot;margin: 0 0 0 40px; border: none; padding: 0px;&quot;&gt;ENDEREÇO&lt;/blockquote&gt;&lt;/blockquote&gt;" style="ellipse;whiteSpace=wrap;html=1;perimeterSpacing=30;align=center;" vertex="1" parent="1">
          <mxGeometry x="220" y="460" width="20" height="10" as="geometry" />
        </mxCell>
        <mxCell id="WNNXmoZ7wmmdZ6i9FZGc-9" value="&lt;blockquote style=&quot;margin: 0 0 0 40px; border: none; padding: 0px;&quot;&gt;&lt;blockquote style=&quot;margin: 0 0 0 40px; border: none; padding: 0px;&quot;&gt;RG&lt;/blockquote&gt;&lt;/blockquote&gt;" style="ellipse;whiteSpace=wrap;html=1;perimeterSpacing=30;align=center;" vertex="1" parent="1">
          <mxGeometry x="330" y="430" width="20" height="10" as="geometry" />
        </mxCell>
        <mxCell id="WNNXmoZ7wmmdZ6i9FZGc-10" value="&lt;blockquote style=&quot;margin: 0 0 0 40px; border: none; padding: 0px;&quot;&gt;&lt;blockquote style=&quot;margin: 0 0 0 40px; border: none; padding: 0px;&quot;&gt;CEP&lt;/blockquote&gt;&lt;/blockquote&gt;" style="ellipse;whiteSpace=wrap;html=1;perimeterSpacing=30;align=center;" vertex="1" parent="1">
          <mxGeometry x="195" y="440" width="20" height="10" as="geometry" />
        </mxCell>
        <mxCell id="WNNXmoZ7wmmdZ6i9FZGc-12" value="&lt;blockquote style=&quot;margin: 0 0 0 40px; border: none; padding: 0px;&quot;&gt;&lt;blockquote style=&quot;margin: 0 0 0 40px; border: none; padding: 0px;&quot;&gt;CPF&lt;/blockquote&gt;&lt;/blockquote&gt;" style="ellipse;whiteSpace=wrap;html=1;perimeterSpacing=30;align=center;" vertex="1" parent="1">
          <mxGeometry x="120" y="440" width="20" height="10" as="geometry" />
        </mxCell>
        <mxCell id="WNNXmoZ7wmmdZ6i9FZGc-13" value="&lt;blockquote style=&quot;margin: 0 0 0 40px; border: none; padding: 0px;&quot;&gt;&lt;blockquote style=&quot;margin: 0 0 0 40px; border: none; padding: 0px;&quot;&gt;TELEFONE&lt;/blockquote&gt;&lt;/blockquote&gt;" style="ellipse;whiteSpace=wrap;html=1;perimeterSpacing=30;align=center;" vertex="1" parent="1">
          <mxGeometry x="310" y="450" width="20" height="10" as="geometry" />
        </mxCell>
        <mxCell id="WNNXmoZ7wmmdZ6i9FZGc-14" value="&lt;blockquote style=&quot;margin: 0 0 0 40px; border: none; padding: 0px;&quot;&gt;&lt;blockquote style=&quot;margin: 0 0 0 40px; border: none; padding: 0px;&quot;&gt;cidade&lt;/blockquote&gt;&lt;/blockquote&gt;" style="ellipse;whiteSpace=wrap;html=1;perimeterSpacing=30;align=center;" vertex="1" parent="1">
          <mxGeometry x="360" y="390" width="20" height="10" as="geometry" />
        </mxCell>
        <mxCell id="WNNXmoZ7wmmdZ6i9FZGc-15" value="&lt;blockquote style=&quot;margin: 0 0 0 40px; border: none; padding: 0px;&quot;&gt;&lt;blockquote style=&quot;margin: 0 0 0 40px; border: none; padding: 0px;&quot;&gt;Estado&lt;/blockquote&gt;&lt;/blockquote&gt;" style="ellipse;whiteSpace=wrap;html=1;perimeterSpacing=30;align=center;" vertex="1" parent="1">
          <mxGeometry x="340" y="410" width="20" height="10" as="geometry" />
        </mxCell>
        <mxCell id="WNNXmoZ7wmmdZ6i9FZGc-17" value="DICIPLINA" style="rounded=0;whiteSpace=wrap;html=1;" vertex="1" parent="1">
          <mxGeometry x="550" y="75" width="120" height="60" as="geometry" />
        </mxCell>
        <mxCell id="WNNXmoZ7wmmdZ6i9FZGc-18" value="" style="endArrow=none;html=1;rounded=0;entryX=0.527;entryY=0.609;entryDx=0;entryDy=0;entryPerimeter=0;exitX=1;exitY=1;exitDx=0;exitDy=0;" edge="1" parent="1" source="WNNXmoZ7wmmdZ6i9FZGc-1" target="WNNXmoZ7wmmdZ6i9FZGc-9">
          <mxGeometry width="50" height="50" relative="1" as="geometry">
            <mxPoint x="1180" y="450" as="sourcePoint" />
            <mxPoint x="280" y="525" as="targetPoint" />
          </mxGeometry>
        </mxCell>
        <mxCell id="WNNXmoZ7wmmdZ6i9FZGc-20" value="" style="endArrow=none;html=1;rounded=0;exitX=0.61;exitY=0.494;exitDx=0;exitDy=0;exitPerimeter=0;" edge="1" parent="1" source="WNNXmoZ7wmmdZ6i9FZGc-38">
          <mxGeometry width="50" height="50" relative="1" as="geometry">
            <mxPoint x="425" y="240" as="sourcePoint" />
            <mxPoint x="230" y="60" as="targetPoint" />
          </mxGeometry>
        </mxCell>
        <mxCell id="WNNXmoZ7wmmdZ6i9FZGc-21" value="" style="endArrow=none;html=1;rounded=0;entryX=0.535;entryY=0.563;entryDx=0;entryDy=0;entryPerimeter=0;exitX=0.5;exitY=0;exitDx=0;exitDy=0;" edge="1" parent="1" source="WNNXmoZ7wmmdZ6i9FZGc-3" target="WNNXmoZ7wmmdZ6i9FZGc-37">
          <mxGeometry width="50" height="50" relative="1" as="geometry">
            <mxPoint x="435" y="250" as="sourcePoint" />
            <mxPoint x="485" y="200" as="targetPoint" />
          </mxGeometry>
        </mxCell>
        <mxCell id="WNNXmoZ7wmmdZ6i9FZGc-22" value="" style="endArrow=none;html=1;rounded=0;exitX=0.485;exitY=0.603;exitDx=0;exitDy=0;exitPerimeter=0;entryX=0.5;entryY=0;entryDx=0;entryDy=0;" edge="1" parent="1" source="WNNXmoZ7wmmdZ6i9FZGc-36" target="WNNXmoZ7wmmdZ6i9FZGc-17">
          <mxGeometry width="50" height="50" relative="1" as="geometry">
            <mxPoint x="1030" y="10" as="sourcePoint" />
            <mxPoint x="1080" y="-40" as="targetPoint" />
          </mxGeometry>
        </mxCell>
        <mxCell id="WNNXmoZ7wmmdZ6i9FZGc-23" value="" style="endArrow=none;html=1;rounded=0;exitX=1;exitY=0;exitDx=0;exitDy=0;entryX=0.555;entryY=0.58;entryDx=0;entryDy=0;entryPerimeter=0;" edge="1" parent="1" source="WNNXmoZ7wmmdZ6i9FZGc-17" target="WNNXmoZ7wmmdZ6i9FZGc-35">
          <mxGeometry width="50" height="50" relative="1" as="geometry">
            <mxPoint x="1040" y="20" as="sourcePoint" />
            <mxPoint x="1090" y="-30" as="targetPoint" />
          </mxGeometry>
        </mxCell>
        <mxCell id="WNNXmoZ7wmmdZ6i9FZGc-26" value="" style="endArrow=none;html=1;rounded=0;exitX=1;exitY=1;exitDx=0;exitDy=0;entryX=0.461;entryY=0.482;entryDx=0;entryDy=0;entryPerimeter=0;" edge="1" parent="1" source="WNNXmoZ7wmmdZ6i9FZGc-1" target="WNNXmoZ7wmmdZ6i9FZGc-13">
          <mxGeometry width="50" height="50" relative="1" as="geometry">
            <mxPoint x="1090" y="480" as="sourcePoint" />
            <mxPoint x="320" y="450" as="targetPoint" />
          </mxGeometry>
        </mxCell>
        <mxCell id="WNNXmoZ7wmmdZ6i9FZGc-27" value="" style="endArrow=none;html=1;rounded=0;entryX=0.618;entryY=0.465;entryDx=0;entryDy=0;entryPerimeter=0;exitX=0;exitY=1;exitDx=0;exitDy=0;" edge="1" parent="1" source="WNNXmoZ7wmmdZ6i9FZGc-1" target="WNNXmoZ7wmmdZ6i9FZGc-12">
          <mxGeometry width="50" height="50" relative="1" as="geometry">
            <mxPoint x="1050" y="340" as="sourcePoint" />
            <mxPoint x="395" y="340" as="targetPoint" />
          </mxGeometry>
        </mxCell>
        <mxCell id="WNNXmoZ7wmmdZ6i9FZGc-28" value="" style="endArrow=none;html=1;rounded=0;entryX=0.532;entryY=0.557;entryDx=0;entryDy=0;entryPerimeter=0;exitX=0;exitY=1;exitDx=0;exitDy=0;" edge="1" parent="1" source="WNNXmoZ7wmmdZ6i9FZGc-1" target="WNNXmoZ7wmmdZ6i9FZGc-7">
          <mxGeometry width="50" height="50" relative="1" as="geometry">
            <mxPoint x="1020" y="470" as="sourcePoint" />
            <mxPoint x="370" y="615" as="targetPoint" />
          </mxGeometry>
        </mxCell>
        <mxCell id="WNNXmoZ7wmmdZ6i9FZGc-29" value="" style="endArrow=none;html=1;rounded=0;entryX=0.617;entryY=0.517;entryDx=0;entryDy=0;entryPerimeter=0;exitX=0;exitY=1;exitDx=0;exitDy=0;" edge="1" parent="1" source="WNNXmoZ7wmmdZ6i9FZGc-1" target="WNNXmoZ7wmmdZ6i9FZGc-10">
          <mxGeometry width="50" height="50" relative="1" as="geometry">
            <mxPoint x="1020" y="570" as="sourcePoint" />
            <mxPoint x="380" y="625" as="targetPoint" />
          </mxGeometry>
        </mxCell>
        <mxCell id="WNNXmoZ7wmmdZ6i9FZGc-30" value="" style="endArrow=none;html=1;rounded=0;exitX=0.662;exitY=0.54;exitDx=0;exitDy=0;exitPerimeter=0;entryX=0;entryY=1;entryDx=0;entryDy=0;" edge="1" parent="1" source="WNNXmoZ7wmmdZ6i9FZGc-8" target="WNNXmoZ7wmmdZ6i9FZGc-1">
          <mxGeometry width="50" height="50" relative="1" as="geometry">
            <mxPoint x="340" y="685" as="sourcePoint" />
            <mxPoint x="1090" y="560" as="targetPoint" />
          </mxGeometry>
        </mxCell>
        <mxCell id="WNNXmoZ7wmmdZ6i9FZGc-31" value="" style="endArrow=none;html=1;rounded=0;exitX=0.602;exitY=0.409;exitDx=0;exitDy=0;exitPerimeter=0;entryX=1;entryY=1;entryDx=0;entryDy=0;" edge="1" parent="1" source="WNNXmoZ7wmmdZ6i9FZGc-14" target="WNNXmoZ7wmmdZ6i9FZGc-1">
          <mxGeometry width="50" height="50" relative="1" as="geometry">
            <mxPoint x="385" y="430" as="sourcePoint" />
            <mxPoint x="1100" y="340" as="targetPoint" />
          </mxGeometry>
        </mxCell>
        <mxCell id="WNNXmoZ7wmmdZ6i9FZGc-32" value="" style="endArrow=none;html=1;rounded=0;exitX=0.512;exitY=0.471;exitDx=0;exitDy=0;exitPerimeter=0;entryX=1;entryY=1;entryDx=0;entryDy=0;" edge="1" parent="1" source="WNNXmoZ7wmmdZ6i9FZGc-15" target="WNNXmoZ7wmmdZ6i9FZGc-1">
          <mxGeometry width="50" height="50" relative="1" as="geometry">
            <mxPoint x="395" y="440" as="sourcePoint" />
            <mxPoint x="1160" y="370" as="targetPoint" />
          </mxGeometry>
        </mxCell>
        <mxCell id="WNNXmoZ7wmmdZ6i9FZGc-34" value="&lt;blockquote style=&quot;margin: 0 0 0 40px; border: none; padding: 0px;&quot;&gt;&lt;blockquote style=&quot;margin: 0 0 0 40px; border: none; padding: 0px;&quot;&gt;nota&lt;/blockquote&gt;&lt;/blockquote&gt;" style="ellipse;whiteSpace=wrap;html=1;perimeterSpacing=30;align=center;" vertex="1" parent="1">
          <mxGeometry x="465" y="235" width="20" height="10" as="geometry" />
        </mxCell>
        <mxCell id="WNNXmoZ7wmmdZ6i9FZGc-35" value="&lt;blockquote style=&quot;margin: 0 0 0 40px; border: none; padding: 0px;&quot;&gt;&lt;blockquote style=&quot;margin: 0 0 0 40px; border: none; padding: 0px;&quot;&gt;carga Horaria&lt;/blockquote&gt;&lt;/blockquote&gt;" style="ellipse;whiteSpace=wrap;html=1;perimeterSpacing=30;align=center;" vertex="1" parent="1">
          <mxGeometry x="660" y="20" width="20" height="10" as="geometry" />
        </mxCell>
        <mxCell id="WNNXmoZ7wmmdZ6i9FZGc-36" value="&lt;blockquote style=&quot;margin: 0 0 0 40px; border: none; padding: 0px;&quot;&gt;&lt;blockquote style=&quot;margin: 0 0 0 40px; border: none; padding: 0px;&quot;&gt;NOME&lt;/blockquote&gt;&lt;/blockquote&gt;" style="ellipse;whiteSpace=wrap;html=1;perimeterSpacing=30;align=center;" vertex="1" parent="1">
          <mxGeometry x="600" y="40" width="20" height="10" as="geometry" />
        </mxCell>
        <mxCell id="WNNXmoZ7wmmdZ6i9FZGc-37" value="&lt;blockquote style=&quot;margin: 0 0 0 40px; border: none; padding: 0px;&quot;&gt;&lt;blockquote style=&quot;margin: 0 0 0 40px; border: none; padding: 0px;&quot;&gt;Código&lt;/blockquote&gt;&lt;/blockquote&gt;" style="ellipse;whiteSpace=wrap;html=1;perimeterSpacing=30;align=center;" vertex="1" parent="1">
          <mxGeometry x="280" y="10" width="20" height="10" as="geometry" />
        </mxCell>
        <mxCell id="WNNXmoZ7wmmdZ6i9FZGc-38" value="&lt;blockquote style=&quot;margin: 0 0 0 40px; border: none; padding: 0px;&quot;&gt;&lt;blockquote style=&quot;margin: 0 0 0 40px; border: none; padding: 0px;&quot;&gt;NOME&lt;/blockquote&gt;&lt;/blockquote&gt;" style="ellipse;whiteSpace=wrap;html=1;perimeterSpacing=30;align=center;" vertex="1" parent="1">
          <mxGeometry x="190" y="10" width="20" height="10" as="geometry" />
        </mxCell>
        <mxCell id="WNNXmoZ7wmmdZ6i9FZGc-39" value="&lt;blockquote style=&quot;margin: 0 0 0 40px; border: none; padding: 0px;&quot;&gt;&lt;blockquote style=&quot;margin: 0 0 0 40px; border: none; padding: 0px;&quot;&gt;Frequência&lt;/blockquote&gt;&lt;/blockquote&gt;" style="ellipse;whiteSpace=wrap;html=1;perimeterSpacing=30;align=center;" vertex="1" parent="1">
          <mxGeometry x="450" y="280" width="20" height="10" as="geometry" />
        </mxCell>
        <mxCell id="WNNXmoZ7wmmdZ6i9FZGc-40" value="&lt;blockquote style=&quot;margin: 0 0 0 40px; border: none; padding: 0px;&quot;&gt;&lt;blockquote style=&quot;margin: 0 0 0 40px; border: none; padding: 0px;&quot;&gt;Titulo&lt;/blockquote&gt;&lt;/blockquote&gt;" style="ellipse;whiteSpace=wrap;html=1;perimeterSpacing=30;align=center;" vertex="1" parent="1">
          <mxGeometry x="670" y="400" width="20" height="10" as="geometry" />
        </mxCell>
        <mxCell id="WNNXmoZ7wmmdZ6i9FZGc-42" value="&lt;blockquote style=&quot;margin: 0 0 0 40px; border: none; padding: 0px;&quot;&gt;&lt;blockquote style=&quot;margin: 0 0 0 40px; border: none; padding: 0px;&quot;&gt;Data da Matricula&lt;/blockquote&gt;&lt;/blockquote&gt;" style="ellipse;whiteSpace=wrap;html=1;perimeterSpacing=30;align=center;" vertex="1" parent="1">
          <mxGeometry x="220" y="210" width="20" height="10" as="geometry" />
        </mxCell>
        <mxCell id="WNNXmoZ7wmmdZ6i9FZGc-44" value="" style="endArrow=none;html=1;rounded=0;exitX=0.609;exitY=0.49;exitDx=0;exitDy=0;exitPerimeter=0;entryX=1;entryY=1;entryDx=0;entryDy=0;" edge="1" parent="1" source="WNNXmoZ7wmmdZ6i9FZGc-42" target="WNNXmoZ7wmmdZ6i9FZGc-79">
          <mxGeometry width="50" height="50" relative="1" as="geometry">
            <mxPoint x="290" y="237.5" as="sourcePoint" />
            <mxPoint x="580" y="57.5" as="targetPoint" />
          </mxGeometry>
        </mxCell>
        <mxCell id="WNNXmoZ7wmmdZ6i9FZGc-49" value="" style="endArrow=none;html=1;rounded=0;entryX=1;entryY=1;entryDx=0;entryDy=0;exitX=0.459;exitY=0.522;exitDx=0;exitDy=0;exitPerimeter=0;" edge="1" parent="1" source="WNNXmoZ7wmmdZ6i9FZGc-40" target="WNNXmoZ7wmmdZ6i9FZGc-5">
          <mxGeometry width="50" height="50" relative="1" as="geometry">
            <mxPoint x="1160" y="375" as="sourcePoint" />
            <mxPoint x="1210" y="325" as="targetPoint" />
          </mxGeometry>
        </mxCell>
        <mxCell id="WNNXmoZ7wmmdZ6i9FZGc-24" value="" style="endArrow=none;html=1;rounded=0;entryX=0.5;entryY=1;entryDx=0;entryDy=0;exitX=0.55;exitY=0.409;exitDx=0;exitDy=0;exitPerimeter=0;shadow=1;" edge="1" parent="1" source="WNNXmoZ7wmmdZ6i9FZGc-33" target="WNNXmoZ7wmmdZ6i9FZGc-5">
          <mxGeometry width="50" height="50" relative="1" as="geometry">
            <mxPoint x="590" y="505" as="sourcePoint" />
            <mxPoint x="640" y="455" as="targetPoint" />
          </mxGeometry>
        </mxCell>
        <mxCell id="WNNXmoZ7wmmdZ6i9FZGc-25" value="" style="endArrow=none;html=1;rounded=0;entryX=0;entryY=1;entryDx=0;entryDy=0;exitX=0.525;exitY=0.494;exitDx=0;exitDy=0;exitPerimeter=0;shadow=1;" edge="1" parent="1" source="WNNXmoZ7wmmdZ6i9FZGc-43" target="WNNXmoZ7wmmdZ6i9FZGc-5">
          <mxGeometry width="50" height="50" relative="1" as="geometry">
            <mxPoint x="600" y="515" as="sourcePoint" />
            <mxPoint x="650" y="465" as="targetPoint" />
          </mxGeometry>
        </mxCell>
        <mxCell id="WNNXmoZ7wmmdZ6i9FZGc-33" value="&lt;blockquote style=&quot;margin: 0 0 0 40px; border: none; padding: 0px;&quot;&gt;&lt;blockquote style=&quot;margin: 0 0 0 40px; border: none; padding: 0px;&quot;&gt;NOME&lt;/blockquote&gt;&lt;/blockquote&gt;" style="ellipse;whiteSpace=wrap;html=1;perimeterSpacing=30;align=center;shadow=1;" vertex="1" parent="1">
          <mxGeometry x="605" y="420" width="20" height="10" as="geometry" />
        </mxCell>
        <mxCell id="WNNXmoZ7wmmdZ6i9FZGc-43" value="&lt;blockquote style=&quot;margin: 0 0 0 40px; border: none; padding: 0px;&quot;&gt;&lt;blockquote style=&quot;margin: 0 0 0 40px; border: none; padding: 0px;&quot;&gt;Gmail&lt;/blockquote&gt;&lt;/blockquote&gt;" style="ellipse;whiteSpace=wrap;html=1;perimeterSpacing=30;align=center;shadow=1;" vertex="1" parent="1">
          <mxGeometry x="530" y="410" width="20" height="10" as="geometry" />
        </mxCell>
        <mxCell id="WNNXmoZ7wmmdZ6i9FZGc-79" value="Matricula" style="rhombus;whiteSpace=wrap;html=1;" vertex="1" parent="1">
          <mxGeometry x="110" y="200" width="110" height="60" as="geometry" />
        </mxCell>
        <mxCell id="WNNXmoZ7wmmdZ6i9FZGc-87" value="Contém" style="rhombus;whiteSpace=wrap;html=1;" vertex="1" parent="1">
          <mxGeometry x="375" y="60" width="110" height="60" as="geometry" />
        </mxCell>
        <mxCell id="WNNXmoZ7wmmdZ6i9FZGc-88" value="Ministra" style="rhombus;whiteSpace=wrap;html=1;" vertex="1" parent="1">
          <mxGeometry x="550" y="210" width="110" height="60" as="geometry" />
        </mxCell>
        <mxCell id="WNNXmoZ7wmmdZ6i9FZGc-89" value="Avaliação" style="rhombus;whiteSpace=wrap;html=1;" vertex="1" parent="1">
          <mxGeometry x="330.00000000000006" y="220" width="110" height="60" as="geometry" />
        </mxCell>
        <mxCell id="WNNXmoZ7wmmdZ6i9FZGc-94" value="" style="endArrow=none;html=1;rounded=0;entryX=0.5;entryY=1;entryDx=0;entryDy=0;exitX=0.5;exitY=0;exitDx=0;exitDy=0;" edge="1" parent="1" source="WNNXmoZ7wmmdZ6i9FZGc-88" target="WNNXmoZ7wmmdZ6i9FZGc-17">
          <mxGeometry width="50" height="50" relative="1" as="geometry">
            <mxPoint x="450" y="530" as="sourcePoint" />
            <mxPoint x="500" y="480" as="targetPoint" />
          </mxGeometry>
        </mxCell>
        <mxCell id="WNNXmoZ7wmmdZ6i9FZGc-95" value="" style="endArrow=none;html=1;rounded=0;entryX=0.5;entryY=1;entryDx=0;entryDy=0;exitX=0.5;exitY=0;exitDx=0;exitDy=0;" edge="1" parent="1" source="WNNXmoZ7wmmdZ6i9FZGc-5" target="WNNXmoZ7wmmdZ6i9FZGc-88">
          <mxGeometry width="50" height="50" relative="1" as="geometry">
            <mxPoint x="460" y="540" as="sourcePoint" />
            <mxPoint x="510" y="490" as="targetPoint" />
          </mxGeometry>
        </mxCell>
        <mxCell id="WNNXmoZ7wmmdZ6i9FZGc-98" value="" style="endArrow=none;html=1;rounded=0;entryX=0.5;entryY=1;entryDx=0;entryDy=0;exitX=1;exitY=0;exitDx=0;exitDy=0;" edge="1" parent="1" source="WNNXmoZ7wmmdZ6i9FZGc-1" target="WNNXmoZ7wmmdZ6i9FZGc-89">
          <mxGeometry width="50" height="50" relative="1" as="geometry">
            <mxPoint x="490" y="570" as="sourcePoint" />
            <mxPoint x="540" y="520" as="targetPoint" />
          </mxGeometry>
        </mxCell>
        <mxCell id="WNNXmoZ7wmmdZ6i9FZGc-104" value="" style="endArrow=none;html=1;rounded=0;entryX=0.5;entryY=1;entryDx=0;entryDy=0;exitX=0;exitY=0;exitDx=0;exitDy=0;" edge="1" parent="1" source="WNNXmoZ7wmmdZ6i9FZGc-1" target="WNNXmoZ7wmmdZ6i9FZGc-79">
          <mxGeometry width="50" height="50" relative="1" as="geometry">
            <mxPoint x="510" y="590" as="sourcePoint" />
            <mxPoint x="560" y="540" as="targetPoint" />
          </mxGeometry>
        </mxCell>
        <mxCell id="WNNXmoZ7wmmdZ6i9FZGc-106" value="" style="endArrow=none;html=1;rounded=0;entryX=0.57;entryY=0.522;entryDx=0;entryDy=0;entryPerimeter=0;exitX=1;exitY=0.5;exitDx=0;exitDy=0;" edge="1" parent="1" source="WNNXmoZ7wmmdZ6i9FZGc-89" target="WNNXmoZ7wmmdZ6i9FZGc-39">
          <mxGeometry width="50" height="50" relative="1" as="geometry">
            <mxPoint x="498.86" y="610" as="sourcePoint" />
            <mxPoint x="548.86" y="560" as="targetPoint" />
          </mxGeometry>
        </mxCell>
        <mxCell id="WNNXmoZ7wmmdZ6i9FZGc-112" value="" style="endArrow=none;html=1;rounded=0;entryX=0.432;entryY=0.58;entryDx=0;entryDy=0;entryPerimeter=0;exitX=1;exitY=0.5;exitDx=0;exitDy=0;" edge="1" parent="1" source="WNNXmoZ7wmmdZ6i9FZGc-89" target="WNNXmoZ7wmmdZ6i9FZGc-34">
          <mxGeometry width="50" height="50" relative="1" as="geometry">
            <mxPoint x="408.86" y="390" as="sourcePoint" />
            <mxPoint x="443.4200000000002" y="208" as="targetPoint" />
          </mxGeometry>
        </mxCell>
        <mxCell id="WNNXmoZ7wmmdZ6i9FZGc-115" value="" style="endArrow=none;html=1;rounded=0;entryX=0.5;entryY=1;entryDx=0;entryDy=0;exitX=0.5;exitY=0;exitDx=0;exitDy=0;" edge="1" parent="1" source="WNNXmoZ7wmmdZ6i9FZGc-79" target="WNNXmoZ7wmmdZ6i9FZGc-3">
          <mxGeometry width="50" height="50" relative="1" as="geometry">
            <mxPoint x="880" y="310" as="sourcePoint" />
            <mxPoint x="930" y="260" as="targetPoint" />
          </mxGeometry>
        </mxCell>
        <mxCell id="WNNXmoZ7wmmdZ6i9FZGc-116" value="" style="endArrow=none;html=1;rounded=0;entryX=0;entryY=1;entryDx=0;entryDy=0;exitX=0.5;exitY=0;exitDx=0;exitDy=0;" edge="1" parent="1" source="WNNXmoZ7wmmdZ6i9FZGc-89" target="WNNXmoZ7wmmdZ6i9FZGc-17">
          <mxGeometry width="50" height="50" relative="1" as="geometry">
            <mxPoint x="890" y="320" as="sourcePoint" />
            <mxPoint x="940" y="270" as="targetPoint" />
          </mxGeometry>
        </mxCell>
        <mxCell id="WNNXmoZ7wmmdZ6i9FZGc-117" value="" style="endArrow=none;html=1;rounded=0;entryX=1;entryY=0.5;entryDx=0;entryDy=0;exitX=0;exitY=0.5;exitDx=0;exitDy=0;" edge="1" parent="1" source="WNNXmoZ7wmmdZ6i9FZGc-87" target="WNNXmoZ7wmmdZ6i9FZGc-3">
          <mxGeometry width="50" height="50" relative="1" as="geometry">
            <mxPoint x="900" y="330" as="sourcePoint" />
            <mxPoint x="950" y="280" as="targetPoint" />
          </mxGeometry>
        </mxCell>
        <mxCell id="WNNXmoZ7wmmdZ6i9FZGc-118" value="" style="endArrow=none;html=1;rounded=0;entryX=1;entryY=0.5;entryDx=0;entryDy=0;exitX=0;exitY=0.5;exitDx=0;exitDy=0;" edge="1" parent="1" source="WNNXmoZ7wmmdZ6i9FZGc-17" target="WNNXmoZ7wmmdZ6i9FZGc-87">
          <mxGeometry width="50" height="50" relative="1" as="geometry">
            <mxPoint x="910" y="340" as="sourcePoint" />
            <mxPoint x="940" y="280" as="targetPoint" />
          </mxGeometry>
        </mxCell>
      </root>
    </mxGraphModel>
  </diagram>
</mxfile>
